<?xml version="1.0" encoding="utf-8"?>
<!-- Generator: Adobe Illustrator 26.5.1, SVG Export Plug-In . SVG Version: 6.00 Build 0)  -->
<svg version="1.1" id="Layer_1" xmlns="http://www.w3.org/2000/svg" xmlns:xlink="http://www.w3.org/1999/xlink" x="0px" y="0px"
	 viewBox="0 0 1700.47 1700.56" style="enable-background:new 0 0 1700.47 1700.56;" xml:space="preserve">
<style type="text/css">
	.st0{fill:#FFFFFF;}
	.st1{fill:#3EBAB2;}
	.st2{fill:#F23552;}
	.st3{fill:url(#SVGID_1_);}
	.st4{fill:url(#SVGID_00000019651360823171769340000014428354871992600209_);}
	.st5{fill:url(#SVGID_00000031186835164969595600000001182403762960578447_);}
	.st6{fill:url(#SVGID_00000140001427804521771610000009742712289845347977_);}
</style>
<path class="st0" d="M835.73,0.09v0.18v0.18c-6.89,0.37-13.78,0.82-20.66,1.36c13.29-0.77,26.59-1.22,39.9-1.36
	c-6.41-0.22-12.82-0.37-19.23-0.45L835.73,0.09z"/>
<path class="st0" d="M863.3,0.18l0.09,0.09c-16.12,0.07-32.23,0.6-48.32,1.59c-0.03,0-0.06,0-0.09,0c-2.04,0.14-4.08,0.29-6.12,0.45
	c-15.33,0.59-30.65,1.6-45.93,3.02c-4.02,0.27-8.05,0.58-12.06,0.91l0.45,0.68C484.35,37.55,247.55,192.5,112.59,424.87
	c-133.63,232.94-149.43,515.3-42.65,761.7h196.74h166.86c-2.46-3.13-4.89-6.29-7.28-9.48c-4.07-5.54-8.03-11.16-11.88-16.85
	c-0.06-0.03-0.12-0.06-0.18-0.09c-1.72-1.29-3.4-2.62-5.06-3.99c1.6,1.25,3.22,2.46,4.88,3.63c-8.29-11.42-16.13-23.16-23.49-35.2
	c-3.66-5.72-7.2-11.51-10.64-17.37c-34.32-62.82-55.7-131.9-62.86-203.13c0-0.03,0-0.06,0-0.09c-1.77-17.74-2.66-35.55-2.65-53.38
	c0-0.03,0-0.06,0-0.09c0-0.08,0-0.15,0-0.23c0.17-33.57,3.49-67.06,9.93-100.01c41.17-215.35,209.48-383.83,424.78-425.23
	c0.03,0,0.06,0,0.09,0c4.9-0.82,9.8-1.58,14.72-2.27c0.53-0.06,1.06-0.12,1.59-0.18l0.09-0.09L947.79,6.89l0.45-0.91
	c-28.17-3.3-56.49-5.19-84.85-5.67L863.3,0.18z M947.71,6.73l-98.15,170.14l-84.05,145.49c3.28-0.48,6.56-0.94,9.84-1.36
	c24.63-3.71,49.48-5.69,74.39-5.94c15.1,0.12,30.18,0.87,45.22,2.27c2.81,0.36,5.61,0.73,8.41,1.13c12.52,1.06,25,2.57,37.42,4.51
	c0.03,0,0.06,0,0.09,0c2.96,0.66,5.92,1.34,8.87,2.04c9,1.78,17.96,3.79,26.86,6.03c5.48,1.12,10.95,2.33,16.4,3.63
	c2.93,0.95,5.86,1.92,8.78,2.93c31.32,9.15,61.74,21.13,90.88,35.82c47.8,24.34,91.68,55.72,130.16,93.1
	c38.47,37.35,71.1,80.27,96.82,127.32c0,0.03,0,0.06,0,0.09c25.72,47.06,44.22,97.72,54.88,150.28c0.31,1.86,0.61,3.72,0.91,5.58
	c0,0.03,0,0.06,0,0.09c0.23,1.62,0.46,3.25,0.68,4.88c2.7,14.04,4.83,28.17,6.39,42.38c1.63,16.86,2.47,33.78,2.49,50.72
	c0.06,0.88,0.12,1.77,0.18,2.65c0,0.03,0,0.06,0,0.09c-0.01,12.63-0.46,25.26-1.36,37.86c0,0.03,0,0.06,0,0.09
	c-0.15,1.07-0.3,2.13-0.45,3.2c-0.66,6.19-1.43,12.37-2.31,18.53c-0.15,1.18-0.3,2.36-0.45,3.54c-0.88,9.28-2,18.53-3.36,27.75
	c0,0.03,0,0.06,0,0.09c-0.3,1.39-0.6,2.78-0.91,4.17c0,0.06,0,0.12,0,0.18c-0.95,4.5-1.95,8.99-3.02,13.47
	c-0.03,0.08-0.06,0.15-0.09,0.23c-2.17,11.43-4.71,22.78-7.62,34.05c0,0.03,0,0.06,0,0.09c-0.67,1.98-1.35,3.96-2.04,5.94
	c-0.03,0.03-0.06,0.06-0.09,0.09c-4.28,15.11-9.22,30.02-14.81,44.69c0,0.03,0,0.06,0,0.09c-4.11,9.94-8.52,19.76-13.22,29.43
	c-0.14,1.18-0.29,2.36-0.45,3.54c-0.76,4.3-1.74,8.56-2.93,12.77c1.16-4.24,2.11-8.53,2.83-12.86c0.16-1.06,0.32-2.13,0.45-3.2
	c-10.2,22.6-21.97,44.46-35.2,65.43c0,0.03,0,0.06,0,0.09c-9.64,14.99-20.03,29.49-31.12,43.44c0,0.03,0,0.06,0,0.09
	c-11.12,13.97-22.92,27.38-35.38,40.17c-75.16,77.39-171.96,130.27-277.69,151.7c-17.5,3.54-35.17,6.21-52.93,7.98
	c-17.76,1.81-35.61,2.72-53.46,2.74c-6.04-0.12-12.07-0.35-18.1-0.68c-1.36-0.03-2.72-0.06-4.08-0.09c-1.1-0.06-2.19-0.12-3.29-0.18
	c-4.14-0.1-8.27-0.25-12.4-0.45c-2.96-0.35-5.91-0.73-8.87-1.13c-0.06,0-0.12,0-0.18,0c-3.05-0.35-6.1-0.73-9.14-1.13
	c-14.71-1.46-29.35-3.54-43.89-6.21c-0.15-0.03-0.3-0.06-0.45-0.09c-14.43-2.63-28.75-5.85-42.91-9.66
	c-34.43-9.56-67.81-22.54-99.66-38.75c-47.8-24.34-91.68-55.72-130.16-93.1c-12.79-12.42-24.95-25.47-36.44-39.1
	c0-0.03,0-0.06,0-0.09c-2.28-2.9-4.52-5.83-6.74-8.78H69.66c0-0.03,0-0.06,0-0.09h-0.91c0,0.03,0,0.06,0,0.09
	c3.72,7.89,7.56,15.72,11.52,23.5c0.06,0.15,0.12,0.3,0.18,0.45c14.55,30.93,30.95,60.95,49.12,89.9c-1.28-1.85-2.55-3.71-3.81-5.58
	c2.85,4.49,5.75,8.95,8.69,13.38c6.67,10.88,13.59,21.61,20.75,32.18c3.85,6.11,7.78,12.18,11.79,18.19l0.91-1.81
	c142.05,191.02,357.63,313.8,594.4,338.52c28.82,3.37,57.79,5.26,86.8,5.67c0.88-0.06,1.77-0.12,2.65-0.18
	c15.8-0.33,31.59-1.1,47.35-2.31c17.09-0.91,34.15-2.33,51.16-4.26c10.13-1.35,20.24-2.89,30.32-4.6
	c17.95-2.68,35.81-5.93,53.55-9.75c9.71-2.31,19.37-4.79,28.99-7.44c18.23-4.63,36.29-9.86,54.17-15.69
	c7.48-2.62,14.93-5.34,22.34-8.16c19.94-7.15,39.61-15.05,58.96-23.67c5.32-2.49,10.61-5.03,15.87-7.62
	c20.97-9.91,41.53-20.68,61.62-32.27c3.09-1.87,6.17-3.76,9.23-5.67c21.33-12.71,42.1-26.35,62.24-40.87
	c2.61-1.97,5.21-3.95,7.8-5.94c20.42-15.1,40.15-31.1,59.14-47.97c1.93-1.77,3.85-3.54,5.76-5.33
	c19.21-17.41,37.61-35.7,55.15-54.79c1.24-1.42,2.48-2.84,3.72-4.26c17.36-19.1,33.84-38.98,49.39-59.58
	c0.76-0.97,1.51-1.95,2.27-2.93l0.45,1.13c7.01-10.02,13.81-20.19,20.39-30.5c6.26-8.96,12.35-18.03,18.26-27.22
	c9.05-14.72,17.66-29.71,25.8-44.95c5.93-10.55,11.64-21.22,17.12-32.01c3.82-7.83,7.51-15.73,11.09-23.67
	c2.17-4.56,4.3-9.14,6.39-13.74h-0.91c106.52-246.5,90.41-528.82-43.44-761.61C1450.98,192.6,1214.14,37.58,947.11,6.92L947.71,6.73
	z"/>
<path class="st1" d="M849.74,616.92c-1.69,0.05-3.37,0.11-5.06,0.18c-0.15,0-0.3,0-0.45,0c-5.04,0.14-10.06,0.44-15.08,0.91
	c-0.23,0-0.45,0-0.68,0c-0.53,0.07-1.06,0.15-1.59,0.23c-7.16,0.68-14.29,1.68-21.36,3.02c-0.06,0-0.12,0-0.18,0
	c-0.3,0.06-0.6,0.12-0.91,0.18c-7.26,1.43-14.45,3.21-21.54,5.33c-0.38,0.15-0.76,0.3-1.13,0.45c-7.15,2.17-14.2,4.68-21.11,7.53
	c-7.2,2.99-14.25,6.33-21.11,10.02c-6.88,3.68-13.57,7.71-20.05,12.06c-6.43,4.33-12.65,8.98-18.62,13.92
	c-6,4.97-11.74,10.24-17.21,15.78c-16.44,16.66-30.28,35.7-41.05,56.48c-7.17,13.84-12.94,28.37-17.21,43.36
	c-4.26,14.91-7.03,30.2-8.25,45.66c0,0.06,0,0.12,0,0.18c-0.53,5.99-0.84,11.99-0.91,18.01c0,0.06,0,0.12,0,0.18
	c0,0.03,0,0.06,0,0.09c0.03,1.04,0.06,2.07,0.09,3.11c0.02,4.44,0.18,8.88,0.45,13.31c0,0.06,0,0.12,0,0.18
	c1.1,15.47,3.75,30.8,7.89,45.75c2.09,7.5,4.55,14.9,7.37,22.16c11.31,29.1,28.35,55.63,50.1,78.02
	c5.41,5.6,11.09,10.93,17.03,15.96c0.03,0,0.06,0,0.09,0c5.94,5.01,12.12,9.71,18.53,14.11c0.03,0,0.06,0,0.09,0
	c6.38,4.41,12.98,8.49,19.77,12.25c0.03,0,0.06,0,0.09,0c20.49,11.21,42.55,19.28,65.43,23.94c0.03,0,0.06,0,0.09,0
	c7.36,1.48,14.78,2.6,22.25,3.36c8.03,0.54,16.07,0.92,24.12,1.13c5.53-0.07,11.05-0.22,16.58-0.45c0.06,0,0.12,0,0.18,0
	c112.92-8.13,203.74-96.11,215.45-208.71c0.53-7.68,0.91-15.36,1.13-23.05c0.03-0.38,0.06-0.76,0.09-1.13
	c0.02-13.31-1.11-26.6-3.36-39.72c0-0.03,0-0.06,0-0.09c-14.97-86.52-77.21-157.33-161.1-183.27c-0.03,0-0.06,0-0.09,0
	c-7.41-2.29-14.92-4.22-22.52-5.76c-0.03,0-0.06,0-0.09,0c-7.62-1.54-15.31-2.7-23.05-3.47c-6.17-0.41-12.35-0.71-18.53-0.91
	c-1.53-0.09-3.07-0.17-4.6-0.23c-0.06,0-0.12,0-0.18,0L849.74,616.92z M364.13,1078.67c0.74,4.24,1.68,8.44,2.83,12.59
	c0.03,0,0.06,0,0.09,0C365.87,1087.11,364.9,1082.91,364.13,1078.67z M390.82,1137.37c0,0.03,0,0.06,0,0.09
	c0.06,0.03,0.12,0.06,0.18,0.09c0-0.03,0-0.06,0-0.09C390.94,1137.43,390.88,1137.4,390.82,1137.37z"/>
<path class="st2" d="M192.3,1385.62c141.79,174.49,346.88,285.77,570.46,309.52c28.82,3.37,57.79,5.26,86.8,5.67
	c0.88-0.06,1.77-0.12,2.65-0.18c15.8-0.33,31.59-1.1,47.35-2.31c17.09-0.91,34.15-2.33,51.16-4.26c10.13-1.35,20.24-2.89,30.32-4.6
	c17.95-2.68,35.81-5.93,53.55-9.75c9.71-2.31,19.37-4.79,28.99-7.44c18.23-4.63,36.29-9.86,54.17-15.69
	c7.48-2.62,14.93-5.34,22.34-8.16c19.94-7.15,39.61-15.05,58.96-23.67c5.32-2.48,10.61-5.03,15.87-7.62
	c20.97-9.91,41.53-20.68,61.62-32.27c3.09-1.87,6.17-3.76,9.23-5.67c21.33-12.71,42.1-26.35,62.24-40.87
	c2.61-1.97,5.21-3.95,7.8-5.94c20.42-15.1,40.15-31.1,59.14-47.97c1.93-1.76,3.85-3.53,5.76-5.31
	c19.21-17.42,37.61-35.7,55.15-54.79c1.24-1.42,2.48-2.84,3.72-4.26c9.82-11.22,19.34-22.69,28.55-34.4H854.87
	c-1.72,0.08-3.43,0.16-5.15,0.23c-2.28-0.06-4.55-0.14-6.83-0.23H192.3z"/>
<linearGradient id="SVGID_1_" gradientUnits="userSpaceOnUse" x1="1160.1434" y1="393.7537" x2="315.0925" y2="393.7537">
	<stop  offset="0" style="stop-color:#3EBAB2"/>
	<stop  offset="1" style="stop-color:#18B8EC"/>
</linearGradient>
<path class="st3" d="M847.61,0.09c-6.27,0.31-12.54,0.69-18.8,1.13c-4.58,0.11-9.16,0.27-13.74,0.45c-0.03,0-0.06,0-0.09,0
	c-2.04,0.14-4.08,0.29-6.12,0.45c-15.33,0.59-30.65,1.6-45.93,3.02c-4.02,0.27-8.05,0.58-12.06,0.91l0.45,0.68
	c-13.32,1.9-26.59,4.12-39.81,6.64c-7.52,1.14-15.03,2.38-22.52,3.72C446.9,63.08,236.64,211.76,112.59,424.68
	C49.25,535.84,11.79,659.85,3,787.49h315.64c1.45-12.53,3.34-25.01,5.67-37.42c41.17-215.35,209.48-383.83,424.78-425.23
	c0.03,0,0.06,0,0.09,0c4.9-0.82,9.8-1.58,14.72-2.27c0.53-0.06,1.06-0.12,1.59-0.18l0.09-0.09c3.28-0.48,6.56-0.94,9.84-1.36
	c21.65-3.22,43.47-5.12,65.34-5.67h2.27c0.97-0.06,1.95-0.12,2.93-0.18c1.3-0.03,2.6-0.07,3.9-0.09c1.39,0.06,2.78,0.12,4.17,0.18
	c0.45,0.03,0.91,0.06,1.36,0.09c3.73,0.11,7.45,0.26,11.18,0.45v-0.45h641.65c-9.21-11.72-18.73-23.19-28.55-34.4
	c-1.23-1.43-2.47-2.85-3.72-4.26c-17.54-19.09-35.94-37.38-55.15-54.79c-1.91-1.79-3.83-3.56-5.76-5.33
	c-18.99-16.86-38.72-32.87-59.14-47.97c-2.59-2-5.19-3.98-7.8-5.94c-20.14-14.53-40.91-28.17-62.24-40.88
	c-3.06-1.91-6.14-3.8-9.23-5.67c-20.09-11.59-40.65-22.36-61.62-32.27c-5.27-2.59-10.56-5.13-15.87-7.62
	c-19.35-8.62-39.02-16.52-58.96-23.67c-7.41-2.83-14.85-5.55-22.34-8.16c-17.88-5.83-35.95-11.06-54.17-15.69
	c-9.62-2.65-19.29-5.13-28.99-7.44c-17.74-3.82-35.6-7.07-53.55-9.75c-10.08-1.72-20.19-3.25-30.32-4.6
	c-17.01-1.94-34.07-3.36-51.16-4.26c-11.01-0.74-22.04-1.27-33.07-1.59V0.29c-1.07-0.06-2.13-0.12-3.2-0.18l0.09,0.09
	c-2.28,0.05-4.55,0.11-6.83,0.18c-1.45-0.06-2.9-0.12-4.35-0.18c-0.88-0.06-1.77-0.12-2.65-0.18c-0.68,0-1.36,0-2.04,0L847.61,0.09z
	"/>
<linearGradient id="SVGID_00000016773097157348235680000010545865205274841995_" gradientUnits="userSpaceOnUse" x1="433.1306" y1="496.3298" x2="433.1306" y2="1334.9232">
	<stop  offset="0" style="stop-color:#1F6DD1"/>
	<stop  offset="1" style="stop-color:#9C3DFF"/>
</linearGradient>
<path style="fill:url(#SVGID_00000016773097157348235680000010545865205274841995_);" d="M315.1,192.58
	C140.61,334.36,29.33,539.45,5.58,763.03c-3.37,28.79-5.26,57.73-5.67,86.71c0.03,0.88,0.06,1.77,0.09,2.65
	c0.33,15.83,1.1,31.65,2.31,47.43c0.56,8.14,1.24,16.27,2.04,24.38c0.4,5.36,0.86,10.71,1.36,16.06c0.28,3.58,0.58,7.15,0.91,10.73
	c1.35,10.11,2.89,20.19,4.6,30.24c1.34,8.06,2.79,16.1,4.35,24.11c1.1,6.45,2.28,12.89,3.54,19.32c0.58,3.41,1.19,6.81,1.81,10.2
	c2.31,9.71,4.79,19.37,7.44,28.99c1.78,6.46,3.64,12.9,5.58,19.32c2.48,9.06,5.11,18.07,7.89,27.04c0.74,2.57,1.5,5.14,2.27,7.71
	c2.62,7.48,5.34,14.93,8.16,22.34c2.1,5.37,4.25,10.73,6.46,16.06c3.57,10.09,7.33,20.11,11.27,30.06h0.91c0,0.03,0,0.06,0,0.09H70
	c0-0.03,0-0.06,0-0.09H69.1c0,0.03,0,0.06,0,0.09c3.72,7.89,7.56,15.72,11.52,23.5c0.06,0.15,0.12,0.3,0.18,0.45
	c2.86,5.53,5.79,11.02,8.78,16.49c8.16,16.95,16.89,33.63,26.16,50.01c1.09,1.77,2.19,3.54,3.29,5.31
	c3.56,6.08,7.2,12.11,10.91,18.1c-1.28-1.85-2.55-3.71-3.81-5.58c2.85,4.49,5.75,8.95,8.69,13.38
	c6.67,10.88,13.59,21.61,20.75,32.18c3.85,6.11,7.78,12.18,11.79,18.19l0.91-1.81c8.35,10.67,16.95,21.13,25.8,31.39
	c7.18,9.19,14.54,18.24,22.09,27.13c1.12,1.21,2.23,2.42,3.36,3.63c11.16,11.97,22.66,23.62,34.49,34.93
	c7.28,7.58,14.69,15.03,22.25,22.34c0.85,0.77,1.71,1.54,2.56,2.31c10.7,9.38,21.64,18.48,32.8,27.31c1.09,0.89,2.19,1.77,3.29,2.65
	c127.96,104.4,283.53,169.31,447.75,186.81c28.82,3.37,57.79,5.26,86.8,5.67c0.88-0.06,1.77-0.12,2.65-0.18
	c4.76-0.19,9.51-0.41,14.26-0.68v-314.93c-5.58,0.39-11.17,0.69-16.76,0.91c-6.04-0.12-12.07-0.35-18.1-0.68
	c-1.36-0.03-2.72-0.06-4.08-0.09c-1.1-0.06-2.19-0.12-3.29-0.18c-4.14-0.1-8.27-0.25-12.4-0.45c-2.96-0.35-5.91-0.73-8.87-1.13
	c-0.06,0-0.12,0-0.18,0c-3.05-0.35-6.1-0.73-9.14-1.13c-14.71-1.46-29.35-3.54-43.89-6.21c-0.15-0.03-0.3-0.06-0.45-0.09
	c-14.43-2.63-28.75-5.85-42.91-9.66c-34.43-9.56-67.81-22.54-99.66-38.75c-47.8-24.34-91.68-55.72-130.16-93.1
	c-12.79-12.42-24.95-25.47-36.44-39.1c0-0.03,0-0.06,0-0.09c-2.28-2.9-4.52-5.83-6.74-8.78H314.75v-0.09h118.54
	c-2.46-3.13-4.89-6.29-7.28-9.48c-4.07-5.54-8.03-11.16-11.88-16.85c-0.06-0.03-0.12-0.06-0.18-0.09c-1.72-1.29-3.4-2.62-5.06-3.99
	c1.6,1.25,3.22,2.46,4.88,3.63c-8.29-11.42-16.13-23.16-23.49-35.2c-3.65-5.72-7.2-11.51-10.64-17.37
	c-34.32-62.82-55.7-131.9-62.86-203.13c0-0.03,0-0.06,0-0.09c-1.2-13.62-1.88-27.29-2.04-40.96v-7.8c-0.08-1.72-0.16-3.43-0.23-5.15
	c0.06-2.28,0.14-4.55,0.23-6.83L315.1,192.58z"/>
<linearGradient id="SVGID_00000117671098120159103710000001422254631430344877_" gradientUnits="userSpaceOnUse" x1="1420.4014" y1="1275.4221" x2="439.5378" y2="1275.4221">
	<stop  offset="0" style="stop-color:#F23552"/>
	<stop  offset="1" style="stop-color:#F235C4"/>
</linearGradient>
<path style="fill:url(#SVGID_00000117671098120159103710000001422254631430344877_);" d="M1385.17,850.1c0,0.08,0,0.15,0,0.23
	c0,0.03,0,0.06,0,0.09c-0.01,12.63-0.46,25.26-1.36,37.86c0,0.03,0,0.06,0,0.09c-0.15,1.07-0.3,2.13-0.45,3.2
	c-0.66,6.19-1.43,12.37-2.31,18.53c-0.15,1.18-0.3,2.36-0.45,3.54c-0.88,9.28-2,18.53-3.36,27.75c0,0.03,0,0.06,0,0.09
	c-0.3,1.39-0.6,2.78-0.91,4.17c0,0.06,0,0.12,0,0.18c-0.95,4.5-1.95,8.99-3.02,13.47c-0.03,0.08-0.06,0.15-0.09,0.23
	c-2.17,11.43-4.71,22.78-7.62,34.05c0,0.03,0,0.06,0,0.09c-0.67,1.98-1.35,3.96-2.04,5.94c-0.03,0.03-0.06,0.06-0.09,0.09
	c-4.28,15.11-9.22,30.01-14.81,44.69c0,0.03,0,0.06,0,0.09c-4.11,9.94-8.52,19.76-13.22,29.44c-0.14,1.18-0.29,2.36-0.45,3.54
	c-0.76,4.3-1.74,8.56-2.93,12.77c1.16-4.24,2.11-8.53,2.83-12.86c0.16-1.06,0.32-2.13,0.45-3.2c-10.2,22.6-21.97,44.46-35.2,65.43
	c0,0.03,0,0.06,0,0.09c-9.64,14.99-20.03,29.49-31.12,43.45c0,0.03,0,0.06,0,0.09c-11.12,13.97-22.92,27.37-35.38,40.16
	c-75.16,77.39-171.96,130.27-277.69,151.7c-17.5,3.54-35.17,6.21-52.93,7.98c-12.21,1.02-24.45,1.63-36.71,1.81v0.68h-11.61
	c-1.72,0.08-3.43,0.16-5.15,0.23c-2.28-0.06-4.55-0.14-6.83-0.23H192.13c141.79,174.49,346.88,285.77,570.45,309.52
	c28.82,3.37,57.79,5.26,86.8,5.67c0.88-0.06,1.77-0.12,2.65-0.18c4.76-0.19,9.53-0.41,14.29-0.68c11.03-0.31,22.06-0.84,33.07-1.59
	c17.09-0.9,34.15-2.31,51.16-4.24c10.13-1.35,20.24-2.89,30.32-4.6c17.95-2.68,35.81-5.93,53.55-9.75
	c9.71-2.31,19.37-4.79,28.99-7.44c18.23-4.63,36.29-9.86,54.17-15.69c7.48-2.62,14.93-5.34,22.34-8.16
	c19.94-7.15,39.61-15.05,58.96-23.67c5.32-2.48,10.61-5.03,15.87-7.62c20.97-9.91,41.53-20.68,61.62-32.27
	c3.09-1.87,6.17-3.76,9.23-5.67c21.33-12.71,42.1-26.35,62.24-40.87c2.61-1.97,5.21-3.95,7.8-5.94
	c20.42-15.1,40.15-31.1,59.14-47.96c1.93-1.77,3.85-3.54,5.76-5.33c19.21-17.42,37.61-35.7,55.15-54.79
	c1.24-1.42,2.48-2.84,3.72-4.26c9.82-11.22,19.34-22.69,28.55-34.4c7.11-8.26,14.06-16.65,20.84-25.18
	c0.76-0.97,1.51-1.95,2.27-2.93l0.45,1.13c7.01-10.02,13.81-20.19,20.39-30.5c6.26-8.96,12.35-18.03,18.26-27.22
	c9.06-14.72,17.66-29.71,25.8-44.95c5.93-10.55,11.64-21.22,17.12-32.01c3.82-7.83,7.51-15.73,11.09-23.67
	c2.16-4.56,4.29-9.14,6.37-13.74h-0.91c45.8-106.24,69.45-220.7,69.51-336.39L1385.17,850.1z"/>
<linearGradient id="SVGID_00000003074198777426696340000003142197266817099164_" gradientUnits="userSpaceOnUse" x1="1283.4725" y1="520.8046" x2="1283.4725" y2="1806.0587">
	<stop  offset="0" style="stop-color:#F39A4B"/>
	<stop  offset="1" style="stop-color:#F25435"/>
</linearGradient>
<path style="fill:url(#SVGID_00000003074198777426696340000003142197266817099164_);" d="M866.49,0.36v0.68
	c10.86,0.32,21.7,0.85,32.54,1.59C888.2,1.66,877.35,0.9,866.49,0.36z M900.18,2.67c15.9,0.85,31.78,2.15,47.61,3.9l0.45-0.68
	c-15.96-1.52-31.95-2.58-47.97-3.2L900.18,2.67z M964.91,8.97c4.23,0.65,8.46,1.33,12.68,2.04C973.37,10.3,969.14,9.62,964.91,8.97z
	 M1051.35,25.55c4.08,1.01,8.16,2.04,12.22,3.11C1059.51,27.59,1055.44,26.56,1051.35,25.55z M1128.76,48.34
	c3.79,1.36,7.57,2.75,11.34,4.17c10.93,4.12,21.78,8.47,32.54,13.04C1158.17,59.41,1143.53,53.67,1128.76,48.34z M1205.54,79.28
	c3.14,1.49,6.27,2.99,9.39,4.51c16.98,8.19,33.69,16.94,50.1,26.24C1245.6,99,1225.76,88.74,1205.54,79.28z M1279.13,117.67
	c2.22,1.35,4.44,2.71,6.64,4.08c21.33,12.71,42.1,26.35,62.24,40.87c2.61,1.97,5.21,3.95,7.8,5.94
	c20.42,15.1,40.15,31.1,59.14,47.97c1.93,1.77,3.85,3.54,5.76,5.33c19.21,17.41,37.61,35.7,55.15,54.79
	c1.24,1.42,2.48,2.84,3.72,4.26c9.82,11.22,19.34,22.69,28.55,34.4H866.48v0.45c9.5,0.2,18.99,0.65,28.46,1.36
	c2.81,0.36,5.61,0.73,8.41,1.13c12.52,1.06,25,2.57,37.42,4.51c0.03,0,0.06,0,0.09,0c2.96,0.66,5.92,1.34,8.87,2.04
	c9.01,1.78,17.96,3.79,26.87,6.03c5.48,1.12,10.95,2.33,16.4,3.63c2.93,0.95,5.86,1.92,8.78,2.93
	c31.32,9.15,61.74,21.14,90.88,35.82c47.8,24.34,91.68,55.72,130.16,93.09c38.47,37.35,71.1,80.27,96.82,127.32
	c0,0.03,0,0.06,0,0.09c25.72,47.06,44.22,97.72,54.88,150.28c0.31,1.86,0.61,3.72,0.91,5.58c0,0.03,0,0.06,0,0.09
	c0.23,1.62,0.46,3.25,0.68,4.88c2.7,14.04,4.83,28.17,6.4,42.38c1.63,16.86,2.47,33.78,2.49,50.72c0.06,0.79,0.12,1.59,0.18,2.38
	h0.68c-0.14,1.66-0.29,3.31-0.45,4.97v653.27c11.72-9.21,23.19-18.73,34.4-28.55c1.42-1.23,2.83-2.47,4.24-3.72
	c19.1-17.54,37.38-35.94,54.79-55.15c1.78-1.91,3.55-3.83,5.31-5.76c16.86-18.99,32.87-38.72,47.97-59.14c2-2.59,3.98-5.19,5.94-7.8
	c14.53-20.14,28.16-40.91,40.87-62.24c1.91-3.06,3.8-6.14,5.67-9.23c11.59-20.09,22.36-40.65,32.27-61.62
	c2.59-5.26,5.13-10.56,7.62-15.87c8.62-19.35,16.52-39.02,23.67-58.96c2.83-7.41,5.55-14.85,8.16-22.34
	c5.83-17.88,11.06-35.95,15.69-54.17c2.65-9.62,5.13-19.29,7.44-28.99c3.82-17.74,7.07-35.6,9.75-53.55
	c1.72-10.08,3.25-20.19,4.6-30.32c1.94-17.01,3.36-34.07,4.26-51.16c1.21-15.76,1.98-31.55,2.31-47.35
	c0.03-0.88,0.06-1.77,0.09-2.65c-0.59-21.35-1.98-42.68-4.17-63.93c-9.14-127.02-46.68-250.37-109.85-360.94
	c-74.14-127.29-180.06-233.15-307.39-307.22L1279.13,117.67z"/>
</svg>
