<?xml version="1.0" encoding="utf-8"?>
<!-- Generator: Adobe Illustrator 26.5.1, SVG Export Plug-In . SVG Version: 6.00 Build 0)  -->
<svg version="1.1" xmlns="http://www.w3.org/2000/svg" xmlns:xlink="http://www.w3.org/1999/xlink" x="0px" y="0px"
	 viewBox="0 0 1154.5 1155" style="enable-background:new 0 0 1154.5 1155;" xml:space="preserve">
<style type="text/css">
	.st0{display:none;}
	.st1{display:inline;fill-rule:evenodd;clip-rule:evenodd;fill:#FFFFFF;}
	.st2{fill-rule:evenodd;clip-rule:evenodd;fill:#0070F3;}
</style>
<g id="BACKGROUND" class="st0">
	<rect x="-473" y="-472.5" class="st1" width="2100" height="2100"/>
</g>
<g id="OBJECT">
	<path class="st2" d="M870,79.8c47.9,28.3,91.4,63.3,129.2,103.7c-33,130.1-175.8,147.5-315.3,112.9C825.5,287.8,916.8,203,870,79.8
		z M186.5,842C120.2,761.9,80.2,659.1,80.2,547C80.2,291.5,287.4,84.4,543,84.4c90.4,0,174.7,25.9,245.9,70.7
		c14.9-41.9,7.8-86.3-21.5-123C707.8,11.3,643.8,0,577,0C258.1,0-0.5,258.5-0.5,577.5c0,75.9,14.8,148.5,41.4,214.9
		C75,834.1,143,859.1,186.5,842z M554.4,348.1c19.5-13.2,41.2-24.2,67.2-31.3c-319.6-33-399.8,169.5-227.7,178.4
		c13.2,12.3,28.4,18.9,45.3,21.5c-49.8-36.6-15.2-51.1,15.7-50.1c28.9,1,54.6,15.2,5,50.8c39.4-2.8,79.1-30.8,114.7-18.2
		c-36-43.1-78.4-60.3-172.1-55.7c-47.7,2.5-51.6-22.6-8.1-37.6c97-33.5,241.2,15.4,359.6,38.5c240.9,47.2,313-8.8,367.6-59.8
		c-16.6-46.7-39-90.7-66.3-131.1C1021.5,405.6,794.8,398.7,554.4,348.1z M83,876.6c53.5,88.2,129.9,160.8,220.9,209.7
		c89.8-64.4,110-194.8,17.6-319.4C332.2,920.7,225.9,1017.2,83,876.6z M308.1,654.8c165.6,84.7,248,347.6,113.4,478.9
		c49.5,13.8,101.6,21.2,155.5,21.2c18,0,35.7-0.9,53.3-2.5C670.3,936.8,544.6,694.4,308.1,654.8z M749.4,537.8
		c151.4,76.6,266.1,175.2,345.8,294.8c37.9-76.9,59.3-163.6,59.3-255.1c0-8.2-0.1-16.4-0.6-24.5
		C1030.3,611.5,885.3,584.8,749.4,537.8z M687.7,602.1c11.4,28.1,18.9,57.1,22.4,87C553,576.3,366.2,508.8,158.7,584.2
		c-12.2-53.6,29.3-91.2,136.8-109C141.8,459.6,80.2,534,135.8,634.9c295-150.6,640.9,182.1,601.1,497.5
		c114.4-32.8,214.4-100.2,287.7-190.1C946.8,798.1,832.5,686.6,687.7,602.1z"/>
</g>
</svg>
