<?xml version="1.0" encoding="utf-8"?>
<!-- Generator: Adobe Illustrator 26.5.1, SVG Export Plug-In . SVG Version: 6.00 Build 0)  -->
<svg version="1.1" id="Layer_1" xmlns="http://www.w3.org/2000/svg" xmlns:xlink="http://www.w3.org/1999/xlink" x="0px" y="0px"
	 viewBox="0 0 512 444" style="enable-background:new 0 0 512 444;" xml:space="preserve">
<style type="text/css">
	.st0{display:none;}
	.st1{display:inline;fill:#00194F;}
	.st2{display:inline;fill:#B81111;}
	.st3{fill-rule:evenodd;clip-rule:evenodd;fill:#B81111;}
	.st4{fill-rule:evenodd;clip-rule:evenodd;}
	.st5{fill-rule:evenodd;clip-rule:evenodd;fill:#999999;}
	.st6{fill-rule:evenodd;clip-rule:evenodd;fill:#020202;}
</style>
<g>
	<g class="st0">
		<path class="st1" d="M505.5,506.3h-19.4v0.7l23.1,35.9v24.2h17.2v-24.2l24.1-35.8v-0.8h-19.4l-13.1,20.8L505.5,506.3z
			 M420.1,506.3h-14.6v60.8h17.4v-19.4l-0.3-13.3l25.4,32.7h14.6v-60.8h-17.3v20.8c0.1,2.3,0.1,5.1,0.5,12.4L420.1,506.3z
			 M354.6,542.7h-15.5l7.8-19.4L354.6,542.7z M364.4,567.1h18.4l-27.2-60.8h-17.4L311,567.1h18.2l4-10h27.2L364.4,567.1z
			 M272.8,550.7c16.2-0.2,24.4-9.8,24.4-22.2c0-11.9-8.1-22.1-24.4-22.1h-29.5v60.8h17.2v-16.4H272.8z M260.5,521.1h12.3
			c4.7,0,7.2,3.6,7.2,7.6c0,4-2.4,7.5-7.2,7.5h-12.3V521.1z M196.1,567.1h17v-60.8h-17.9l-16,20.6l-16-20.6h-18v60.8h17V531
			l15.2,18.3h3l15.5-18.4V567.1z M101.3,536.7c0,10.1-6.5,17.2-16.6,17.2c-9.7,0-16.6-7-16.6-17.2c0-10.1,6.8-17.2,16.6-17.2
			C94.7,519.5,101.3,526.3,101.3,536.7z M118.4,536.7c0-20.2-13.8-31.9-33.8-31.9c-19.9,0-33.8,11.9-33.8,31.9
			c0,20.3,13.9,31.9,33.8,31.9C104.6,568.6,118.4,557.1,118.4,536.7z M21,547.9c-4.3,4.4-10.2,6.2-14.3,6.2
			c-12,0-16.1-8.9-16.2-16.8c-0.1-7.9,4.5-17.5,16.2-17.5c4.1,0,8.6,1.1,12.9,5.3l10.6-10.4C23.4,508,15.5,505,6.7,505
			c-22.8,0-33.3,16.6-33.3,32.2c0.1,16.5,9.4,31.5,33.3,31.5c9.2,0,17.5-2.7,24.4-9.5L21,547.9z"/>
		<path class="st2" d="M437.3,606.1h-13.9v-4H436v-6.1h-12.6v-3.8h13.4v-6.3H416v26.7h21.3V606.1z M361.9,585.8h-6.4v26.7h7.6v-8.5
			l-0.1-5.8l11.1,14.4h6.4v-26.7h-7.6v9.1c0,1,0,2.2,0.2,5.4L361.9,585.8z M320,612.4v-26.7h-7.5v26.7H320z M258.9,585.8v26.7h20.3
			V606h-12.8v-20.3H258.9z M223.7,589.3c-3.5-3.5-6.8-4.3-10.5-4.3c-10,0-14.6,7.2-14.6,14.1c0,7,4,14,14.5,14
			c5.1,0,9.8-1.8,11.5-5.2v-11.8h-13v5.9h6.7v3.4c-1.5,1.1-3.7,1.4-5.1,1.4c-5.4,0-7.2-4.2-7.2-7.7c0-5.2,2.8-7.8,7.2-7.8
			c1.8,0,4.2,0.5,6.1,2.3L223.7,589.3z M156.4,601.7h-6.8l3.4-8.5L156.4,601.7z M160.7,612.4h8.1l-11.9-26.7h-7.6l-12,26.7h8
			l1.8-4.4H159L160.7,612.4z M94.4,612.4h7.5V592h7.8v-6.2H86.6v6.2h7.8V612.4z"/>
	</g>
	<g>
		<path class="st3" d="M463.1,85.3L512.3,0H256H-0.3l82,142.1C113.3,84,248.2,49,308.6,51.4c0,0-41.1,7.9-77.8,30.9
			C230.7,82.3,365.9,46.1,463.1,85.3"/>
		<path class="st4" d="M437.1,130.3c-66.1-16.6-135,1.2-135,1.2c40.9-1.2,84.6,4.7,122.2,21L437.1,130.3z"/>
		<path class="st5" d="M61.7,237.7c0,0,1.4-32.9,20.2-47.6c0,0-13.9,7.4-21.4,18c0,0,7.3-24.9,39-32.8l19.8-7.4l7.7,5.6
			c0,0,27.6-0.7,33.5-25.8c0,0,32-25.4,120.2-38c0,0-23.4,5.7-66.8,27.9c0,0,103.8-11.3,198.6,35.4l-28.3,49l-11.9,20.7
			c-31-8.9-145-46.5-192.3-40.1C129.1,209.4,68,240,68,240S62.5,241.8,61.7,237.7"/>
		<path class="st4" d="M273.4,342.4c-61.7-99.6-132.5-98.2-132.9-98.6L256,444l74.5-129.1c-20.1-41.8-51.2-83.1-90-103.3
			c0,0,57,7.6,111.5,66.2l32.2-55.8l15.3-26.5c-64.6-29.4-143.9-38.4-209.6-23.8c62.3,4.1,105.9,18.4,144,45.9
			c-84.3-33.1-161.7-45.4-249.1,0.1c0,0,12.5-25.4,58.9-37.4c-33.4,2.3-61.6,17.8-75.3,41.3c-2.9,5-5.2,10.4-6.7,16
			c0,0-23.1-24.3-8.2-50.8c0,0-28.3,24.8,14.7,70.8c2.3-5.1,5.1-9.6,8.3-13.6c5.7-7.1,12.8-12.4,20.9-16.3
			C154.6,203.2,250.5,232.5,273.4,342.4"/>
		<path class="st6" d="M196,124.3c0,0-33.4,4.4-46.1,21.3c0,0,5.5,25.1-22.8,27.8l0.1,0.1l0.1,0.1l0.1,0.1l0.1,0.1l0.1,0.1l0.1,0.1
			l0.7,0.6l0.1,0.1l0.1,0.1l0.1,0.1l3.5,3l0.1,0.1l0.1,0.1l0.1,0.1l0.1,0.1l0.1,0.1l0.1,0.1l0.1,0.1l0.1,0.1l0.1,0.1l0.1,0.1
			l0.1,0.1l0.1,0.1c-17.4-5.9-41.5,2.9-51.1-14.1C107.6,187.1,148.5,107.3,196,124.3"/>
	</g>
</g>
</svg>
